# xmcd
#
# Track frame offsets:
#	150
#	1432
#	53981
#	75000
#	92185
#	124062
#	131336
#	156414
#	163266
#	185345
#	189114
#	211083
#	212488
#
# Disc length: 2845 seconds
# Revision: 1
# Processed by: cddbd v1.5.2PL0 Copyright (c) Steve Scherf et al.
# Submitted via: dBpowerAMP V12.0
#
DISCID=a00b1b0d
DTITLE=Hale Dwoskin - The Inner Circle Retreat 03 CD 02
DYEAR=2007
DGENRE=Speech
TTITLE0=Intro Music
TTITLE1=A Vortex of Energies
TTITLE2=Working with Others
TTITLE3=How to Welcome What You Want to Change
TTITLE4=Assignments
TTITLE5=Physical Pain
TTITLE6=Problems Are Just Memories
TTITLE7=Questions on the Assignments
TTITLE8=Can You Find Your Mind
TTITLE9=The Illusion of Limitation
TTITLE10=Feeling Isolated
TTITLE11=Conclusion
TTITLE12=Concluding Music
EXTD=
EXTT0=
EXTT1=
EXTT2=
EXTT3=
EXTT4=
EXTT5=
EXTT6=
EXTT7=
EXTT8=
EXTT9=
EXTT10=
EXTT11=
EXTT12=
PLAYORDER=
